<svg width="35" height="35" viewBox="0 0 35 35" fill="none" xmlns="http://www.w3.org/2000/svg">
<g filter="url(#filter0_d_3866_576)">
<rect x="3.29999" y="3.29999" width="28.0386" height="28.0386" rx="14" fill="white" shape-rendering="crispEdges"/>
<path d="M22.8688 17.8688C23.1829 17.5546 23.1829 17.0453 22.8688 16.7312L17.7496 11.612C17.4355 11.2979 16.9262 11.2979 16.612 11.612C16.2979 11.9262 16.2979 12.4355 16.612 12.7496L21.1624 17.3L16.612 21.8504C16.2979 22.1645 16.2979 22.6738 16.612 22.988C16.9262 23.3021 17.4355 23.3021 17.7496 22.988L22.8688 17.8688ZM11.3 17.3V18.1044H22.3V17.3V16.4956H11.3V17.3Z" fill="#636382"/>
</g>
<defs>
<filter id="filter0_d_3866_576" x="-1.21593e-05" y="-1.21593e-05" width="34.6386" height="34.6386" filterUnits="userSpaceOnUse" color-interpolation-filters="sRGB">
<feFlood flood-opacity="0" result="BackgroundImageFix"/>
<feColorMatrix in="SourceAlpha" type="matrix" values="0 0 0 0 0 0 0 0 0 0 0 0 0 0 0 0 0 0 127 0" result="hardAlpha"/>
<feOffset/>
<feGaussianBlur stdDeviation="1.65"/>
<feComposite in2="hardAlpha" operator="out"/>
<feColorMatrix type="matrix" values="0 0 0 0 0 0 0 0 0 0 0 0 0 0 0 0 0 0 0.1 0"/>
<feBlend mode="normal" in2="BackgroundImageFix" result="effect1_dropShadow_3866_576"/>
<feBlend mode="normal" in="SourceGraphic" in2="effect1_dropShadow_3866_576" result="shape"/>
</filter>
</defs>
</svg>
