<svg width="1444" height="569" viewBox="0 0 1444 569" fill="none" xmlns="http://www.w3.org/2000/svg">
<g opacity="0.12">
<path d="M172.795 399.733L181.533 399.74L181.503 438.515L183.218 438.516L183.247 399.741L191.99 399.748L192.012 369.812L172.818 369.797L172.795 399.733Z" fill="#293B93"/>
<path d="M501.843 409.844L510.586 409.85L510.567 434.338L512.282 434.34L512.3 409.852L521.038 409.858L521.075 360.197L501.881 360.182L501.843 409.844Z" fill="#293B93"/>
<path d="M534.78 370.07L543.522 370.076L543.503 394.4L545.213 394.401L545.232 370.077L553.974 370.084L554.062 253.073L534.868 253.059L534.78 370.07Z" fill="#293B93"/>
<path d="M863.798 420.573L872.54 420.58L872.531 432.573L874.246 432.574L874.255 420.581L882.997 420.588L883.039 364.889L863.84 364.874L863.798 420.573Z" fill="#293B93"/>
<path d="M896.735 381.229L905.477 381.236L905.454 411.964L907.169 411.965L907.192 381.237L915.934 381.243L916.011 279.452L896.811 279.437L896.735 381.229Z" fill="#293B93"/>
<path d="M1061.35 270.292L1070.09 270.299L1070.07 289.633L1071.79 289.634L1071.8 270.3L1080.55 270.307L1080.64 149.553L1061.44 149.538L1061.35 270.292Z" fill="#293B93"/>
<path d="M1442.7 17.6776L1423.5 17.6632L1423.47 62.5625L1432.21 62.5691L1432.17 124.224L1433.88 124.225L1433.93 62.5704L1442.66 62.577L1442.7 17.6776Z" fill="#293B93"/>
<path d="M18.738 374.897L17.0234 374.896L17.0161 384.648L8.27382 384.641L8.2331 438.722L16.9753 438.729L16.9525 469.003L18.6672 469.005L18.69 438.73L27.4274 438.737L27.4681 384.656L18.7307 384.649L18.738 374.897Z" fill="#293B93"/>
<path d="M51.6075 424.357L49.8929 424.355L49.8879 430.934L41.1457 430.927L41.1211 463.578L49.8634 463.584L49.8379 497.375L51.5526 497.376L51.578 463.586L60.3154 463.592L60.34 430.942L51.6026 430.935L51.6075 424.357Z" fill="#293B93"/>
<path d="M84.5214 407.829L82.8116 407.828L82.8056 415.821L74.0633 415.815L74.0431 442.684L82.7853 442.691L82.7655 469.053L84.4753 469.054L84.4952 442.692L93.2374 442.698L93.2576 415.829L84.5154 415.823L84.5214 407.829Z" fill="#293B93"/>
<path d="M117.48 338.916L115.77 338.915L115.726 397.647L106.984 397.641L106.965 422.472L115.707 422.478L115.699 433.022L117.409 433.023L117.417 422.479L126.159 422.486L126.178 397.655L117.436 397.649L117.48 338.916Z" fill="#293B93"/>
<path d="M150.374 356.401L148.659 356.4L148.638 384.747L139.9 384.74L139.874 419.777L148.611 419.783L148.588 450.507L150.303 450.508L150.326 419.785L159.068 419.791L159.094 384.755L150.352 384.748L150.374 356.401Z" fill="#293B93"/>
<path d="M216.192 348.515L214.477 348.514L214.447 389.216L205.704 389.209L205.686 414.04L214.428 414.047L214.419 425.615L216.134 425.616L216.143 414.048L224.885 414.055L224.904 389.224L216.161 389.217L216.192 348.515Z" fill="#293B93"/>
<path d="M249.066 392.531L247.351 392.53L247.344 402.34L238.602 402.333L238.564 451.995L247.307 452.001L247.294 469.177L249.008 469.178L249.021 452.003L257.759 452.009L257.796 402.347L249.059 402.341L249.066 392.531Z" fill="#293B93"/>
<path d="M281.939 437.002L280.224 437L280.217 447.095L271.474 447.088L271.454 474.469L280.196 474.476L280.179 496.868L281.894 496.869L281.911 474.477L290.648 474.484L290.669 447.103L281.931 447.096L281.939 437.002Z" fill="#293B93"/>
<path d="M314.85 424.328L313.14 424.327L313.135 431.132L304.393 431.126L304.368 463.776L313.11 463.783L313.089 491.903L314.799 491.904L314.82 463.784L323.562 463.791L323.587 431.14L314.845 431.133L314.85 424.328Z" fill="#293B93"/>
<path d="M347.794 375.145L346.079 375.144L346.062 397.821L337.325 397.814L337.298 434.208L346.035 434.214L346.029 442.72L347.743 442.721L347.75 434.216L356.492 434.222L356.519 397.829L347.777 397.822L347.794 375.145Z" fill="#293B93"/>
<path d="M380.68 402.44L378.965 402.439L378.945 429.482L370.207 429.475L370.187 456.006L378.925 456.013L378.894 496.546L380.609 496.547L380.639 456.014L389.382 456.021L389.402 429.49L380.659 429.483L380.68 402.44Z" fill="#293B93"/>
<path d="M413.603 379.503L411.889 379.502L411.869 406.376L403.131 406.369L403.113 431.2L411.85 431.207L411.837 448.894L413.551 448.895L413.565 431.208L422.307 431.215L422.326 406.384L413.583 406.377L413.603 379.503Z" fill="#293B93"/>
<path d="M446.545 332.474L444.83 332.473L444.802 370.002L436.06 369.995L436.029 410.306L444.772 410.313L444.759 426.58L446.474 426.581L446.486 410.314L455.229 410.32L455.259 370.009L446.517 370.003L446.545 332.474Z" fill="#293B93"/>
<path d="M479.415 381.596L477.701 381.594L477.695 389.414L468.952 389.408L468.915 439.069L477.657 439.076L477.634 469.35L479.349 469.351L479.372 439.077L488.109 439.084L488.147 389.422L479.409 389.415L479.415 381.596Z" fill="#293B93"/>
<path d="M578.288 173.272L576.573 173.27L576.521 242.546L567.784 242.54L567.746 292.202L586.94 292.216L586.978 242.554L578.236 242.548L578.288 173.272Z" fill="#293B93"/>
<path d="M611.127 262.641L609.412 262.64L609.397 282.37L600.66 282.364L600.629 322.839L609.367 322.845L609.358 333.843L611.073 333.845L611.081 322.847L619.824 322.853L619.854 282.378L611.112 282.372L611.127 262.641Z" fill="#293B93"/>
<path d="M644.029 267.428L642.314 267.427L642.305 279.246L633.568 279.239L633.548 305.263L642.286 305.27L642.269 327.521L643.983 327.522L644 305.271L652.742 305.277L652.762 279.254L644.02 279.247L644.029 267.428Z" fill="#293B93"/>
<path d="M676.942 260.198L675.227 260.197L675.207 286.839L666.465 286.832L666.428 336.494L675.17 336.501L675.156 354.304L676.871 354.305L676.884 336.502L685.627 336.509L685.664 286.847L676.922 286.84L676.942 260.198Z" fill="#293B93"/>
<path d="M709.804 318.728L708.089 318.727L708.079 332.106L699.337 332.099L699.281 406.592L708.023 406.599L708.019 412.834L709.733 412.835L709.738 406.6L718.475 406.606L718.531 332.114L709.794 332.107L709.804 318.728Z" fill="#293B93"/>
<path d="M742.711 318.753L740.996 318.752L740.966 357.981L732.224 357.974L732.127 486.548L751.322 486.562L751.418 357.989L742.681 357.982L742.711 318.753Z" fill="#293B93"/>
<path d="M775.546 406.65L773.836 406.648L773.828 417.192L765.086 417.186L765.063 447.798L773.805 447.804L773.776 486.352L775.486 486.354L775.515 447.806L784.257 447.812L784.28 417.2L775.538 417.193L775.546 406.65Z" fill="#293B93"/>
<path d="M808.432 434.678L806.717 434.677L806.714 439.324L797.976 439.317L797.921 512.452L806.658 512.459L806.646 528.784L808.361 528.785L808.373 512.46L817.115 512.467L817.17 439.331L808.428 439.325L808.432 434.678Z" fill="#293B93"/>
<path d="M841.358 408.853L839.643 408.852L839.639 414.518L830.901 414.511L830.883 439.342L839.62 439.348L839.572 502.959L841.287 502.96L841.335 439.35L850.077 439.356L850.096 414.525L841.353 414.519L841.358 408.853Z" fill="#293B93"/>
<path d="M940.254 174.336L938.539 174.335L938.517 204.213L929.774 204.207L929.7 302.849L948.894 302.863L948.969 204.221L940.231 204.214L940.254 174.336Z" fill="#293B93"/>
<path d="M973.15 187.175L971.436 187.174L971.408 224.137L962.666 224.131L962.641 257.462L971.383 257.469L971.378 264.501L973.092 264.503L973.097 257.47L981.835 257.477L981.86 224.145L973.123 224.139L973.15 187.175Z" fill="#293B93"/>
<path d="M1006.03 212.538L1004.32 212.536L1004.32 221.438L995.575 221.431L995.557 245.412L1004.3 245.419L1004.28 267.018L1005.99 267.02L1006.01 245.42L1014.75 245.427L1014.77 221.446L1006.03 221.439L1006.03 212.538Z" fill="#293B93"/>
<path d="M1038.92 235.413L1037.21 235.412L1037.2 240.85L1028.47 240.844L1028.43 283.874L1037.17 283.88L1037.15 311.604L1038.87 311.606L1038.89 283.882L1047.63 283.888L1047.66 240.858L1038.92 240.851L1038.92 235.413Z" fill="#293B93"/>
<path d="M1104.81 143.732L1103.09 143.731L1103.08 160.795L1094.34 160.788L1094.32 182.9L1103.06 182.906L1103.05 202.917L1104.76 202.918L1104.78 182.908L1113.52 182.914L1113.53 160.803L1104.79 160.796L1104.81 143.732Z" fill="#293B93"/>
<path d="M1137.76 73.6305L1136.05 73.6292L1136.03 100.107L1127.29 100.1L1127.21 204.355L1146.4 204.37L1146.48 100.115L1137.74 100.108L1137.76 73.6305Z" fill="#293B93"/>
<path d="M1170.67 78.7022L1168.95 78.7009L1168.95 87.3755L1160.2 87.3689L1160.18 120.701L1168.92 120.707L1168.9 141.742L1170.62 141.743L1170.63 120.708L1179.37 120.715L1179.4 87.3834L1170.66 87.3768L1170.67 78.7022Z" fill="#293B93"/>
<path d="M1203.55 104.065L1201.84 104.064L1201.84 109.85L1193.09 109.843L1193.08 131.612L1201.82 131.619L1201.81 149.644L1203.52 149.645L1203.53 131.62L1212.27 131.627L1212.29 109.858L1203.55 109.851L1203.55 104.065Z" fill="#293B93"/>
<path d="M1236.44 126.882L1234.73 126.881L1234.72 135.894L1225.98 135.887L1225.96 156.511L1234.71 156.518L1234.7 171.037L1236.41 171.038L1236.42 156.519L1245.16 156.526L1245.17 135.902L1236.43 135.895L1236.44 126.882Z" fill="#293B93"/>
<path d="M1269.35 126.395L1267.63 126.394L1267.61 152.012L1258.87 152.005L1258.86 171.055L1267.6 171.061L1267.58 199.066L1269.29 199.067L1269.31 171.063L1278.05 171.069L1278.07 152.02L1269.33 152.013L1269.35 126.395Z" fill="#293B93"/>
<path d="M1302.29 77.0724L1300.57 77.0712L1300.57 87.4749L1291.83 87.4683L1291.77 160.768L1300.51 160.774L1300.5 171.178L1302.22 171.179L1302.23 160.776L1310.97 160.782L1311.02 87.4828L1302.28 87.4762L1302.29 77.0724Z" fill="#293B93"/>
<path d="M1335.21 57.1104L1333.5 57.1091L1333.49 62.4945L1324.75 62.4879L1324.73 96.1625L1333.47 96.169L1333.43 151.216L1335.14 151.217L1335.18 96.1703L1343.92 96.1769L1343.95 62.5024L1335.21 62.4958L1335.21 57.1104Z" fill="#293B93"/>
<path d="M1368.13 40.4721L1366.42 40.4708L1366.4 54.526L1357.66 54.5194L1357.63 104.181L1366.37 104.188L1366.34 134.578L1368.06 134.579L1368.08 104.189L1376.82 104.196L1376.86 54.5339L1368.12 54.5273L1368.13 40.4721Z" fill="#293B93"/>
<path d="M1401.05 19.6893L1399.34 19.688L1399.33 32.613L1390.59 32.6064L1390.55 79.3749L1399.29 79.3815L1399.28 94.1709L1401 94.1722L1401.01 79.3828L1409.74 79.3894L1409.78 32.6208L1401.04 32.6143L1401.05 19.6893Z" fill="#293B93"/>
<path d="M1449.31 98.9518C1370.33 140.623 1270.87 135.303 1190.3 174.539C1162.43 188.114 1135.67 204.507 1109.39 220.87C1084.7 236.244 1060.65 253.011 1039.89 273.445C998.718 313.995 968.493 375.951 906.188 387.588C872.808 393.822 845.75 375.771 818.429 359.57C790.461 342.983 762.91 324.917 734.053 309.894C722.437 303.847 709.684 298.916 696.339 299.717C681.631 300.6 667.31 307.539 653.661 312.504C626.48 322.395 595.833 330.259 572.095 347.329C550.262 363.03 538.849 388.441 518.777 405.983C500.295 422.135 477.33 432.449 453.355 437.531C428.168 442.869 401.917 442.714 376.572 438.493C350.508 434.15 327.477 424.125 303.17 414.35C279.23 404.726 256.554 404.119 232.33 412.925C209.145 421.356 188.23 434.796 165.248 443.69C153.512 448.231 141.145 451.511 128.485 451.743C112.952 452.026 98.0503 447.301 83.9271 441.301C58.9787 430.7 35.0621 415.916 7.18926 414.746C4.7985 414.647 2.42697 414.665 0.0794995 414.803L0.0785359 416.083C21.0029 414.858 42.7795 423.607 61.4697 432.387C86.0117 443.915 111.022 456.086 138.961 452.176C186.706 445.489 225.591 401.942 275.702 407.969C291.973 409.927 306.747 417.304 321.623 423.643C332.444 428.249 343.54 432.15 354.927 435.144C378.058 441.228 402.21 443.951 426.12 442.471C448.614 441.078 471.005 435.898 491.216 425.862C512.399 415.344 528.581 399.779 542.655 381.112C552.185 368.474 561.569 355.991 574.844 346.964C587.655 338.251 602.236 332.621 616.725 327.309C631.939 321.727 647.181 316.223 662.409 310.68C678.498 304.824 694.176 298.315 711.59 302.4C727.328 306.092 741.231 315.28 754.942 323.414C769.474 332.032 784.006 340.65 798.537 349.268C812.659 357.644 826.678 366.218 840.945 374.348C853.005 381.22 865.713 387.407 879.602 389.471C937.005 398.01 978.866 347.24 1010.83 308.155C1030.41 284.218 1051.39 262.664 1076.51 244.372C1101.25 226.351 1127.86 210.9 1154.31 195.522C1181.53 179.696 1209.23 165.826 1239.68 157.198C1265.03 150.011 1290.92 144.896 1316.73 139.66C1361.69 130.537 1408.25 121.395 1449.29 100.193L1449.29 98.947L1449.31 98.9518Z" fill="#293B93"/>
<path d="M1449.38 0.00480908C1417.39 3.26027 1385.48 8.24975 1354.57 17.2489C1334.45 23.107 1315.19 31.115 1295.62 38.5046C1277.25 45.4411 1258.5 50.4792 1238.88 52.3384C1225.51 53.6083 1212.04 53.6754 1198.63 53.1195C1192.21 52.8539 1185.16 51.3899 1178.8 52.2932C1173.77 53.0091 1169.1 55.7876 1164.99 58.5859C1153.66 66.2957 1144.17 76.4411 1134.1 85.6394C1129.61 89.7464 1125.02 93.974 1119.82 97.1771C1113.98 100.781 1107.56 103.089 1101.89 107.075C1079.6 122.726 1067.99 149.669 1044.75 164.006C1029.9 173.167 1013.47 173.753 997.161 168.274C983.447 163.665 969.215 155.048 954.26 156.084C940.857 157.016 934.445 166.222 928.8 177.196C925.777 183.077 923.179 189.32 919.46 194.823C915.998 199.945 911.643 204.328 908.335 209.6C893.591 233.082 887.624 260.941 879.032 286.934C874.457 300.769 858.418 343.71 837.952 320.08C826.751 307.152 822.564 281.038 800.348 284.914C793.151 286.169 786.324 289.096 779.637 291.926C773.071 294.703 764.963 299.431 757.578 299.174C750.265 298.922 744.38 288.92 740.028 283.719C734.213 276.774 728.756 269.54 723.545 262.141C710.103 243.043 698.43 222.062 679.566 207.558C656.979 190.187 626.152 179.968 597.6 183.149C570.13 186.214 540.908 199.576 525.777 223.43C521.604 230.005 518.305 236.948 513.562 243.194C508.321 250.097 502.197 256.289 495.585 261.897C484.624 271.191 472.287 278.649 461.007 287.523C448.824 297.106 440.458 309.841 429.891 321.015C418.029 333.559 404.642 344.793 389.614 353.442C359.945 370.508 325.717 375.114 292.274 368.211C254.51 360.416 220.543 337.414 181.451 335.53C161.045 334.544 141.629 340.818 122.228 346.198C101.57 351.926 80.7266 355.083 59.2344 353.565C38.7275 352.115 18.7547 346.84 0.131962 338.258L0.130904 339.663C34.3733 355.27 72.9713 359.332 109.724 350.772C131.067 345.799 151.871 337.333 174.041 336.727C194.718 336.163 214.632 342.607 233.715 349.827C267.66 362.672 300.938 376.061 338.035 371.902C368.433 368.49 395.941 354.118 418.468 333.955C431.04 322.706 440.415 308.991 452.127 297.065C461.906 287.108 474.073 279.81 485.275 271.588C496.787 263.139 507.545 253.705 515.958 242.124C520.827 235.419 524.107 227.804 528.913 221.094C533.879 214.162 540.196 208.212 547.15 203.271C574.556 183.798 609.968 179.014 641.649 189.664C656.353 194.606 670.524 201.413 682.388 211.477C691.892 219.536 699.516 229.356 706.575 239.534C714.41 250.827 721.82 262.396 730.139 273.351C734.361 278.914 738.762 284.336 743.366 289.585C746.927 293.65 750.526 299.743 756.389 300.414C761.349 300.983 766.765 298.606 771.215 296.846C779.182 293.694 786.893 289.84 795.159 287.47C801.425 285.673 808.081 284.461 813.928 288.059C818.949 291.149 822.239 296.469 825.123 301.427C832.137 313.483 842.615 336.965 860.317 324.256C867.213 319.306 871.194 310.832 874.397 303.275C879.536 291.137 883.124 278.379 886.998 265.809C891.389 251.554 895.882 237.227 902.225 223.684C904.953 217.852 908.029 212.15 911.704 206.844C915.413 201.481 919.913 196.992 923.095 191.267C930.703 177.574 935.649 158.722 954.269 157.374C970.431 156.203 985.725 166.352 1000.72 170.754C1028.79 178.991 1050.91 164.479 1068.41 143.854C1077 133.727 1084.99 123.015 1094.99 114.174C1104.93 105.401 1117.38 101.392 1127.52 93.1113C1138.53 84.1213 1148.11 73.5461 1159.15 64.5851C1164.31 60.4014 1170.18 55.8367 1176.73 54.0546C1183.55 52.205 1191.68 54.1141 1198.63 54.3995C1222.1 55.3735 1245.77 54.3239 1268.61 48.5596C1286.81 43.9704 1304.01 36.4679 1321.49 29.8108C1345.58 20.6327 1370.29 13.6141 1395.65 8.83701C1413.43 5.48874 1431.38 3.11624 1449.38 1.28475L1449.38 -2.19194e-05L1449.38 0.00480908Z" fill="#293B93"/>
<path d="M1449.28 133.365C1437.59 141.814 1427.83 153.447 1417.74 163.447C1409.08 172.038 1399.43 180.594 1387.53 184.314C1375.02 188.216 1360.72 186.003 1347.75 187.394C1324.49 189.888 1304.75 199.142 1287.69 214.996C1264.21 236.8 1247.28 266.979 1212.61 272.174C1206.17 273.14 1199.63 272.512 1193.23 273.739C1187.9 274.759 1182.83 276.769 1177.96 279.123C1167.02 284.408 1156.86 291.341 1144.88 294.225C1137.22 296.069 1129.37 296.102 1121.62 294.773C1116.81 293.943 1112.27 293.085 1107.34 293.588C1099.71 294.365 1092.77 297.75 1086.81 302.431C1052.63 329.245 1045.08 385.021 1001.28 400.97C985.549 406.701 968.938 407.761 954.624 417.164C943.094 424.738 933.957 435.43 926.612 446.949C910.92 471.56 905.662 507.515 875.384 519.49C865.364 523.453 854.183 521.87 844.766 527.379C836.324 532.318 829.889 540.104 823.673 547.45C817.852 554.329 811.373 563.791 802.474 566.919C789.217 571.579 777.126 554.11 771.255 544.87C763.917 533.321 758.387 520.552 748.309 510.947C739.09 502.164 727.705 497.258 714.969 496.485C685.546 494.695 655.733 510.602 626.649 501.326C619.904 499.171 613.771 497.346 606.671 496.572C597.664 495.59 588.84 495.033 581.015 490.052C570.273 483.219 561.094 473.016 548.505 469.408C543.251 467.902 538.44 468.102 533.305 469.943C523.85 473.341 514.68 477.555 505.201 480.944C487.615 487.229 469.648 492.499 451.373 496.412C414.467 504.315 376.458 506.465 338.952 501.872C320.001 499.549 301.888 493.807 282.648 496.053C264.245 498.198 245.916 503.715 228.065 508.502C208.872 513.651 189.707 520.056 169.585 519.76C149.976 519.47 131.051 513.646 112.402 508.203C84.3559 500.019 54.0437 492.655 25.6544 503.906C15.1461 508.072 6.31181 514.788 0.00173481 524.038L-3.37452e-06 526.346C0.0338319 526.313 0.0676743 526.269 0.0966868 526.226C17.3844 498.92 54.4565 496.079 83.4706 501.955C119.076 509.169 152.43 525.601 189.606 519.423C208.005 516.365 225.987 510.384 244.045 505.81C263.508 500.878 283.611 494.581 303.924 497.272C322.382 499.715 340.264 503.853 358.95 504.988C377.318 506.108 395.764 505.649 414.061 503.706C450.787 499.802 486.623 489.942 520.887 476.42C528.748 473.32 536.827 468.38 545.573 470.005C552.976 471.377 559.575 475.879 565.532 480.226C575.887 487.773 584.001 494.957 597.127 496.831C605.733 498.059 614.21 498.278 622.486 501.173C629.034 503.462 635.418 504.979 642.368 505.288C656.519 505.922 670.543 502.817 684.402 500.447C699.295 497.898 715.438 495.442 730.035 500.761C746.008 506.579 755.59 520.375 763.617 534.427C770.915 547.203 786.72 577.272 805.826 566.791C822.926 557.405 829.815 535.863 847.809 527.217C852.916 524.762 858.137 524.732 863.634 523.915C869.527 523.04 875.286 521.292 880.572 518.542C890.907 513.17 898.744 504.24 904.532 494.338C912.227 481.192 916.677 466.478 924.308 453.255C932.457 439.133 942.992 425.83 957.068 417.137C972.058 407.879 989.755 407.646 1005.57 400.65C1014.56 396.672 1022.2 390.283 1028.78 383.106C1043.6 366.946 1053.69 347.214 1065.77 329.101C1076.43 313.107 1090.88 293.89 1112.43 294.722C1118.37 294.954 1124.09 296.75 1130.04 296.982C1136.32 297.228 1142.61 296.368 1148.62 294.542C1159.32 291.29 1168.63 285.061 1178.63 280.234C1183.88 277.693 1189.39 275.581 1195.2 274.702C1202.49 273.591 1209.84 274.215 1217.12 272.661C1230.11 269.888 1241.73 263.106 1251.73 254.584C1274.01 235.609 1288.55 209.5 1316.16 196.837C1327.79 191.499 1340.44 189.156 1353.16 188.205C1365.12 187.306 1377.88 189.102 1389.36 185.073C1410.78 177.559 1424.59 156.941 1440.64 142.202C1443.42 139.654 1446.29 137.232 1449.29 135.017L1449.29 133.385L1449.28 133.365Z" fill="#293B93"/>
</g>
</svg>
