<svg width="22" height="22" viewBox="0 0 22 22" fill="none" xmlns="http://www.w3.org/2000/svg">
<path d="M14.8883 10.3384C14.8883 10.0354 14.8883 9.8839 14.9338 9.74903C15.0661 9.35668 15.4155 9.20517 15.7658 9.04578C16.1581 8.86624 16.3543 8.77691 16.5496 8.76115C16.7703 8.74363 16.9919 8.79092 17.1811 8.89689C17.4315 9.03702 17.6067 9.30501 17.7853 9.5222C18.6112 10.5258 19.0246 11.0277 19.1752 11.5803C19.2978 12.0269 19.2978 12.4946 19.1752 12.9404C18.9554 13.7478 18.2591 14.4239 17.7433 15.051C17.4797 15.3707 17.3475 15.5309 17.1811 15.6246C16.9886 15.7313 16.7689 15.7786 16.5496 15.7604C16.3543 15.7446 16.1581 15.6553 15.7649 15.4758C15.4146 15.3164 15.0661 15.1649 14.9338 14.7725C14.8883 14.6376 14.8883 14.4861 14.8883 14.184V10.3384ZM6.13047 10.3384C6.13047 9.95659 6.11996 9.61416 5.81168 9.34617C5.69958 9.24896 5.5507 9.18152 5.25381 9.04578C4.86059 8.86712 4.66441 8.77691 4.46911 8.76115C3.88497 8.71386 3.57056 9.11321 3.23426 9.52308C2.40753 10.5258 1.99416 11.0277 1.84265 11.5812C1.72074 12.0263 1.72074 12.4961 1.84265 12.9412C2.06335 13.7478 2.76047 14.4248 3.27542 15.051C3.60034 15.4451 3.91124 15.805 4.46911 15.7604C4.66441 15.7446 4.86059 15.6553 5.25381 15.4758C5.55158 15.3409 5.69958 15.2726 5.81168 15.1754C6.11996 14.9074 6.13047 14.5649 6.13047 14.184V10.3384Z" stroke="white" stroke-width="1.31367"/>
<path d="M17.5156 9.19559V7.88192C17.5156 4.49616 14.3785 1.75146 10.5094 1.75146C6.64016 1.75146 3.50311 4.49616 3.50311 7.88192V9.19559M17.5156 15.3261C17.5156 19.2671 14.0125 19.2671 10.5094 19.2671" stroke="white" stroke-width="1.31367" stroke-linecap="round" stroke-linejoin="round"/>
</svg>
