<svg width="22" height="22" viewBox="0 0 22 22" fill="none" xmlns="http://www.w3.org/2000/svg">
<path d="M10.3425 4.6709V5.72443C8.80227 5.82978 7.56228 7.03537 7.56228 8.49838C7.56228 9.83943 8.59876 10.9833 10.0122 11.223L10.3425 11.2879V15.0505H9.995C9.74845 15.0509 9.50425 15.0058 9.27639 14.9179C9.04854 14.83 8.84151 14.701 8.66718 14.5383C8.49284 14.3755 8.35462 14.1823 8.26043 13.9697C8.16625 13.757 8.11796 13.5291 8.11833 13.299V12.4556H7.00623V13.299C7.00623 14.8299 8.3552 16.0885 9.995 16.0885H10.3425V17.1264H11.4546V16.0885H11.8022C13.4414 16.0885 14.7909 14.8294 14.7909 13.299C14.7909 11.9579 13.755 10.8141 12.341 10.5743L11.4546 10.4119V6.76343C11.9131 6.80954 12.337 7.01223 12.645 7.33251C12.9529 7.65279 13.1231 8.06804 13.1228 8.49838V9.34173H14.2349V8.49838C14.2349 7.03486 12.9949 5.82978 11.4546 5.72495V4.6709H10.3425ZM10.3425 6.76239V10.2178L10.2035 10.2012C9.77415 10.132 9.38495 9.92298 9.10501 9.61134C8.82506 9.29971 8.67249 8.90557 8.67438 8.4989C8.67378 8.06838 8.84384 7.65288 9.15182 7.33238C9.4598 7.01188 9.88392 6.80904 10.3425 6.76291V6.76239ZM11.4546 11.4825L12.1497 11.5967C12.5793 11.6655 12.9687 11.8744 13.2487 12.1861C13.5288 12.4978 13.6812 12.8922 13.6788 13.299C13.6792 13.5291 13.6309 13.757 13.5367 13.9697C13.4425 14.1823 13.3043 14.3755 13.13 14.5383C12.9556 14.701 12.7486 14.83 12.5208 14.9179C12.2929 15.0058 12.0487 15.0509 11.8022 15.0505H11.4546V11.4825Z" fill="white"/>
<circle cx="10.8986" cy="10.8986" r="8.17395" stroke="white" stroke-width="0.778471"/>
</svg>
